<svg xmlns="http://www.w3.org/2000/svg" xmlns:xlink="http://www.w3.org/1999/xlink" width="1920" zoomAndPan="magnify" viewBox="0 0 1440 809.999993" height="1080" preserveAspectRatio="xMidYMid meet" version="1.0"><path fill="#74875c" d="M 704.015625 95.683594 C 668.398438 201.085938 660.25 234.097656 657.683594 283.515625 C 654.328125 348.308594 666.082031 425.433594 681.503906 439.671875 C 688.871094 446.480469 689.9375 442.972656 685.445312 426.625 C 663.515625 346.722656 671.886719 210.191406 702.394531 150.378906 C 712.546875 130.46875 714.507812 133.597656 731.832031 197.308594 C 751.542969 269.839844 752.457031 391.902344 733.550781 427.230469 C 727.808594 437.957031 727.582031 444.511719 732.949219 444.511719 C 737.71875 444.511719 743.851562 437.429688 746.597656 428.78125 C 749.351562 420.128906 759.246094 409.058594 768.59375 404.183594 C 777.941406 399.308594 804.503906 383.65625 827.625 369.398438 C 872.25 341.875 938.992188 315.707031 946.191406 322.90625 C 953.300781 330.015625 858.546875 425.59375 837.929688 432.117188 C 827.429688 435.433594 809.003906 444.574219 796.980469 452.4375 L 775.121094 466.730469 L 810.398438 473.554688 C 829.796875 477.300781 851.710938 482.0625 859.089844 484.117188 C 866.46875 486.175781 876.53125 488.230469 881.453125 488.6875 C 886.371094 489.144531 884.359375 493.410156 876.980469 498.179688 C 869.601562 502.945312 843.097656 506.90625 818.097656 506.988281 C 764.316406 507.148438 755.371094 513.242188 775.792969 535.808594 C 790.113281 551.628906 789.996094 552.148438 773.574219 545.476562 C 764.039062 541.59375 747.171875 532.425781 736.105469 525.09375 C 716.597656 512.175781 715.929688 506.828125 714.140625 350.679688 L 712.304688 189.601562 L 707.429688 355.070312 C 701.554688 554.976562 715.667969 641.289062 754.238281 641.289062 C 759.316406 641.289062 757.046875 634.1875 749.191406 625.5 C 738.359375 613.535156 712.199219 533.785156 719.167969 533.992188 C 719.875 534.007812 740.535156 544.214844 765.070312 556.664062 C 812.152344 580.554688 824.351562 575.449219 802.019531 541.210938 C 788.71875 520.824219 789.046875 520.511719 826.050781 518.605469 C 943.160156 512.570312 952.648438 491.425781 850.148438 464.886719 L 818.84375 456.785156 L 848.589844 441.121094 C 881.800781 423.644531 958.453125 345.25 968.371094 318.628906 C 973.507812 304.839844 970.832031 301.457031 954.957031 301.664062 C 923.210938 302.082031 818.339844 348.371094 788.351562 375.195312 C 773.234375 388.726562 759.816406 399.78125 758.546875 399.765625 C 757.269531 399.746094 755.972656 354.46875 755.660156 299.140625 C 755.175781 212.460938 751.875 190.503906 731.824219 140.40625 C 718.273438 106.550781 706.664062 87.875 704.015625 95.683594 M 541.566406 289.464844 C 541.566406 383.296875 538.320312 430.667969 531.738281 432.867188 C 526.335938 434.675781 512.300781 422.125 500.558594 404.988281 L 479.199219 373.816406 L 460.113281 391.75 L 441.023438 409.675781 L 467.320312 435.972656 C 488.207031 456.855469 492.113281 466.425781 486.292969 482.464844 C 471.398438 523.472656 478.1875 576.421875 501.542969 601.269531 C 522.257812 623.328125 522.667969 625.574219 508.027344 636.289062 C 470.300781 663.871094 498.464844 676.75 596.941406 676.9375 C 666.152344 677.074219 681.921875 667.886719 657.953125 641.402344 C 643.757812 625.722656 644.097656 623.121094 663.785156 596.496094 C 678.175781 577.023438 684.675781 556.085938 684.675781 529.160156 C 684.675781 496.085938 679.535156 484.824219 651.136719 455.746094 C 631.53125 435.667969 617.59375 412.617188 617.59375 400.265625 C 617.59375 379.691406 618.078125 379.566406 635.484375 395.320312 C 645.484375 404.371094 653.371094 406.980469 653.371094 401.25 C 653.371094 395.613281 645.320312 385.972656 635.484375 379.828125 C 619.179688 369.640625 617.59375 358.96875 617.59375 259 L 617.59375 149.351562 L 579.582031 149.339844 L 541.566406 149.332031 Z M 561.328125 163.875 C 557.839844 167.363281 554.984375 227.441406 554.984375 297.378906 C 554.984375 414.53125 556.316406 424.890625 571.878906 428.957031 C 606.199219 437.929688 609.257812 425.882812 606.675781 291.769531 C 604.3125 169.671875 603.203125 162.625 585.921875 160.15625 C 575.878906 158.714844 564.816406 160.398438 561.328125 163.875 M 447.652344 309.007812 C 447.652344 318.953125 497.195312 387.242188 510.261719 395.320312 C 531.058594 408.171875 526.945312 393.21875 501.496094 363.449219 C 469.121094 325.582031 468.503906 320.632812 496.847656 326.046875 C 509.144531 328.398438 519.207031 326.332031 519.207031 321.457031 C 519.207031 316.574219 506.632812 310.070312 491.257812 306.992188 C 454.378906 299.613281 447.652344 299.929688 447.652344 309.007812 M 872.507812 365.792969 C 822.671875 394.136719 786.292969 419.414062 789.988281 423.117188 C 794.128906 427.25 903.8125 364.980469 903.8125 358.496094 C 903.8125 352.359375 890.773438 355.402344 872.507812 365.792969 M 465.835938 406.5 C 466.222656 415.203125 498.117188 453.457031 504.984375 453.457031 C 516.453125 453.457031 509.351562 428.574219 493.902344 414.59375 C 476.425781 398.78125 465.355469 395.585938 465.835938 406.5 M 540.191406 446.738281 C 537.578125 450.96875 551.703125 475.300781 571.578125 500.808594 C 602.757812 540.824219 605.726562 548.300781 593.222656 555.296875 C 578.597656 563.480469 576.175781 561.414062 526.835938 498.886719 C 508.679688 475.863281 495.21875 480.789062 492.113281 511.59375 C 488.054688 551.898438 493.476562 571.648438 514.332031 592.496094 C 531.890625 610.0625 545.394531 614.453125 581.816406 614.453125 C 618.238281 614.453125 631.746094 610.0625 649.300781 592.496094 C 685.464844 556.34375 676.671875 485.398438 632.113281 453.824219 C 611.851562 439.46875 547.738281 434.523438 540.191406 446.738281 M 527.5 475.816406 C 532.535156 485.65625 549.089844 507.792969 564.285156 525.011719 C 579.472656 542.230469 587.910156 548.265625 583.015625 538.429688 C 578.125 528.589844 561.566406 506.453125 546.226562 489.234375 C 530.890625 472.015625 522.453125 465.980469 527.5 475.816406 M 758.46875 495.699219 C 774.460938 497.6875 800.613281 497.6875 816.605469 495.699219 C 832.589844 493.722656 819.511719 492.097656 787.535156 492.097656 C 755.5625 492.097656 742.476562 493.722656 758.46875 495.699219 M 520.800781 642.066406 C 512.882812 654.738281 515.773438 658.039062 538.769531 662.636719 C 575.84375 670.050781 628.6875 669.328125 641.429688 661.214844 C 649.355469 656.171875 649.355469 651.394531 641.429688 641.234375 C 625.929688 621.359375 533.332031 621.996094 520.800781 642.066406 " fill-opacity="1" fill-rule="evenodd"/></svg>